<svg width="128" height="29" viewBox="0 0 128 29" fill="none" xmlns="http://www.w3.org/2000/svg">
<path d="M6.0726 0.19165C2.76554 0.19165 0.952148 1.96916 0.952148 5.31164V13.7033C0.952148 14.379 1.27232 14.8059 1.9122 15.0189L10.3393 17.7928V22.5218C10.3393 23.4819 9.84152 23.9442 8.91688 23.9442H7.21022C6.32147 23.9442 5.78785 23.4819 5.78785 22.5218V19.7838C5.78785 19.3928 5.61028 19.2147 5.21881 19.2147H1.52119C1.1656 19.2147 0.952148 19.3928 0.952148 19.7838V23.5173C0.952148 26.8598 2.76554 28.6377 6.0726 28.6377H10.055C13.3974 28.6377 15.1754 26.8598 15.1754 23.5173V15.3037C15.1754 14.6279 14.8552 14.2369 14.2508 13.988L5.78785 11.2146V6.30758C5.78785 5.38294 6.32147 4.8852 7.21022 4.8852H8.91688C9.87694 4.8852 10.3393 5.38294 10.3393 6.30758V9.08102C10.3393 9.43661 10.5527 9.65006 10.9083 9.65006H14.6064C14.9974 9.65006 15.1754 9.43661 15.1754 9.08102V5.31164C15.1754 1.96916 13.3974 0.19165 10.055 0.19165H6.0726Z" fill="#3A71DC"/>
<path d="M36.332 28.6377C36.9011 28.6377 37.1141 28.2821 36.8652 27.8198L30.4295 13.4544L36.4742 1.04498C36.723 0.547244 36.5096 0.19165 35.9764 0.19165H32.2429C31.8515 0.19165 31.6026 0.369217 31.425 0.72481L25.949 11.9258V0.902837C25.949 0.44052 25.7001 0.19165 25.2378 0.19165H21.8245C21.3622 0.19165 21.1133 0.44052 21.1133 0.902837V27.9265C21.1133 28.3889 21.3622 28.6377 21.8245 28.6377H25.2378C25.7001 28.6377 25.949 28.3889 25.949 27.9265V20.0681L27.2646 17.5435L31.7452 28.1046C31.8873 28.4602 32.1362 28.6377 32.5626 28.6377H36.332Z" fill="#3A71DC"/>
<path d="M56.7421 0.760231C56.7421 0.404638 56.5999 0.19165 56.173 0.19165H43.0878C42.7681 0.19165 42.5547 0.404638 42.5547 0.760231V28.0687C42.5547 28.4243 42.7681 28.6377 43.0878 28.6377H56.173C56.5999 28.6377 56.7421 28.4243 56.7421 28.0687V24.5132C56.7421 24.1217 56.5999 23.9442 56.173 23.9442H47.2837V16.7615H54.0754C54.4309 16.7615 54.6444 16.548 54.6444 16.157V12.6365C54.6444 12.2455 54.4309 12.032 54.0754 12.032H47.2837V4.92063H56.173C56.5999 4.92063 56.7421 4.67176 56.7421 4.31616V0.760231Z" fill="#3A71DC"/>
<path d="M62.6802 28.0687C62.6802 28.4243 62.8936 28.6377 63.2492 28.6377H66.9468C67.3383 28.6377 67.5159 28.4243 67.5159 28.0687V19.108H71.783C75.1255 19.108 76.9034 17.2946 76.9034 13.988V5.31164C76.9034 1.96916 75.1255 0.19165 71.783 0.19165H63.2492C62.8936 0.19165 62.6802 0.404638 62.6802 0.760231V28.0687ZM67.5159 14.4145V4.8852H70.6449C71.605 4.8852 72.0673 5.38294 72.0673 6.30758V12.9921C72.0673 13.8813 71.605 14.4145 70.6449 14.4145H67.5159Z" fill="#3A71DC"/>
<path d="M87.9622 0.19165C84.6552 0.19165 82.8418 1.96916 82.8418 5.31164V13.7033C82.8418 14.379 83.162 14.8059 83.8019 15.0189L92.2289 17.7928V22.5218C92.2289 23.4819 91.7312 23.9442 90.8065 23.9442H89.0999C88.2111 23.9442 87.6775 23.4819 87.6775 22.5218V19.7838C87.6775 19.3928 87.4999 19.2147 87.1085 19.2147H83.4108C83.0552 19.2147 82.8418 19.3928 82.8418 19.7838V23.5173C82.8418 26.8598 84.6552 28.6377 87.9622 28.6377H91.9446C95.2871 28.6377 97.0651 26.8598 97.0651 23.5173V15.3037C97.0651 14.6279 96.7449 14.2369 96.1404 13.988L87.6775 11.2146V6.30758C87.6775 5.38294 88.2111 4.8852 89.0999 4.8852H90.8065C91.7666 4.8852 92.2289 5.38294 92.2289 6.30758V9.08102C92.2289 9.43661 92.4424 9.65006 92.7979 9.65006H96.496C96.887 9.65006 97.0651 9.43661 97.0651 9.08102V5.31164C97.0651 1.96916 95.2871 0.19165 91.9446 0.19165H87.9622Z" fill="#3A71DC"/>
<path d="M103.571 0.19165C103.18 0.19165 103.002 0.404638 103.002 0.760231V28.0687C103.002 28.4243 103.18 28.6377 103.571 28.6377H107.269C107.625 28.6377 107.838 28.4243 107.838 28.0687V0.760231C107.838 0.404638 107.625 0.19165 107.269 0.19165H103.571Z" fill="#3A71DC"/>
<path d="M118.897 0.19165C115.59 0.19165 113.777 1.96916 113.777 5.31164V13.7033C113.777 14.379 114.097 14.8059 114.737 15.0189L123.164 17.7928V22.5218C123.164 23.4819 122.666 23.9442 121.742 23.9442H120.035C119.146 23.9442 118.613 23.4819 118.613 22.5218V19.7838C118.613 19.3928 118.435 19.2147 118.044 19.2147H114.346C113.99 19.2147 113.777 19.3928 113.777 19.7838V23.5173C113.777 26.8598 115.59 28.6377 118.897 28.6377H122.88C126.222 28.6377 128 26.8598 128 23.5173V15.3037C128 14.6279 127.68 14.2369 127.075 13.988L118.613 11.2146V6.30758C118.613 5.38294 119.146 4.8852 120.035 4.8852H121.742C122.702 4.8852 123.164 5.38294 123.164 6.30758V9.08102C123.164 9.43661 123.377 9.65006 123.733 9.65006H127.431C127.822 9.65006 128 9.43661 128 9.08102V5.31164C128 1.96916 126.222 0.19165 122.88 0.19165H118.897Z" fill="#3A71DC"/>
</svg>
